<svg width="662" height="662" viewBox="0 0 662 662" fill="none" xmlns="http://www.w3.org/2000/svg">
<g clip-path="url(#clip0_1351_25740)">
<rect x="331" y="-0.00012207" width="331" height="331" fill="#CDDCEB"/>
<path d="M331 331L9.53674e-07 662H331V331Z" fill="#233B99"/>
<circle cx="496.5" cy="496.5" r="165.5" transform="rotate(-180 496.5 496.5)" fill="#FF7549"/>
<circle opacity="0.72" cx="496.5" cy="498.183" r="109.38" fill="white"/>
<rect y="-0.00012207" width="331" height="331" fill="#233B99"/>
<path d="M331 331C331 309.045 326.719 287.305 318.402 267.022C310.085 246.738 297.894 228.308 282.526 212.784C267.158 197.259 248.913 184.945 228.834 176.543C208.755 168.141 187.234 163.817 165.5 163.817C143.766 163.817 122.245 168.141 102.166 176.543C82.0865 184.945 63.8419 197.259 48.4738 212.784C33.1057 228.308 20.9151 246.738 12.5979 267.022C4.28078 287.305 -1.90003e-06 309.045 0 331L165.5 331H331Z" fill="#FF7549"/>
<path d="M0 -0.00012207C-1.90003e-06 21.9038 4.28078 40.6147 12.5979 60.8512C20.9151 81.0878 33.1057 99.4752 48.4738 114.964C63.8419 130.452 82.0865 142.738 102.166 151.12C122.245 159.503 143.766 163.817 165.5 163.817C187.234 163.817 208.755 159.503 228.834 151.12C248.913 142.738 267.158 130.452 282.526 114.964C297.894 99.4752 310.085 81.0878 318.402 60.8513C326.719 40.6147 331 21.9038 331 -0.000106921H165.5L0 -0.00012207Z" fill="white" fill-opacity="0.4"/>
</g>
<defs>
<clipPath id="clip0_1351_25740">
<rect width="662" height="662" fill="white"/>
</clipPath>
</defs>
</svg>
